<svg width="1000px" height="569px"
 viewBox="0.00 0.00 653.69 371.84" xmlns="http://www.w3.org/2000/svg" xmlns:xlink="http://www.w3.org/1999/xlink">
<g id="graph0" class="graph" transform="scale(1.0 1.0) rotate(0) translate(4 367.84)">
<title>ContextMapGraph</title>
<polygon fill="white" stroke="none" points="-4,4 -4,-367.84 649.69,-367.84 649.69,4 -4,4"/>
<!-- Dashboard -->
<g id="node1" class="node">
<title>Dashboard</title>
<polygon fill="none" stroke="black" stroke-width="2" points="177.73,-83.89 172.17,-83.42 166.68,-82.83 161.3,-82.14 156.04,-81.34 150.92,-80.44 145.97,-79.43 141.2,-78.32 136.63,-77.12 132.28,-75.82 128.17,-74.44 124.3,-72.97 120.7,-71.42 117.38,-69.79 114.33,-68.09 111.58,-66.32 109.13,-64.49 106.98,-62.61 105.14,-60.67 103.61,-58.68 102.39,-56.65 101.48,-54.58 100.87,-52.49 100.57,-50.36 100.56,-48.22 100.84,-46.06 101.4,-43.89 102.24,-41.72 103.33,-39.55 104.68,-37.39 106.27,-35.24 108.08,-33.11 110.12,-31.01 112.35,-28.93 114.77,-26.89 117.37,-24.89 120.13,-22.94 123.04,-21.04 126.08,-19.19 129.25,-17.4 132.52,-15.68 135.9,-14.03 139.36,-12.45 142.89,-10.96 146.49,-9.54 150.15,-8.21 153.85,-6.97 157.58,-5.83 161.35,-4.78 165.14,-3.83 168.94,-2.99 172.75,-2.25 176.57,-1.62 180.39,-1.1 184.2,-0.69 188,-0.39 191.8,-0.2 195.57,-0.13 199.34,-0.18 203.08,-0.34 206.8,-0.61 210.5,-1 214.17,-1.51 217.81,-2.12 221.42,-2.85 224.99,-3.69 228.52,-4.64 232.02,-5.69 235.46,-6.85 238.86,-8.1 242.19,-9.45 245.47,-10.9 248.67,-12.43 251.8,-14.05 254.84,-15.75 257.79,-17.53 260.64,-19.37 263.38,-21.29 265.99,-23.26 268.48,-25.29 270.82,-27.36 273.01,-29.49 275.03,-31.64 276.88,-33.83 278.55,-36.05 280.01,-38.28 281.26,-40.53 282.3,-42.78 283.1,-45.03 283.66,-47.27 283.97,-49.5 284.02,-51.71 283.8,-53.9 283.31,-56.05 282.55,-58.16 281.49,-60.22 280.15,-62.24 278.52,-64.19 276.6,-66.09 274.38,-67.92 271.88,-69.67 269.1,-71.35 266.04,-72.94 262.7,-74.45 259.1,-75.86 255.25,-77.18 251.15,-78.4 246.82,-79.52 242.28,-80.54 237.54,-81.44 232.62,-82.24 227.53,-82.92 222.29,-83.49 216.93,-83.95 211.47,-84.29 205.92,-84.51 200.31,-84.62 194.66,-84.61 189,-84.49 183.35,-84.24 177.73,-83.89"/>
<text text-anchor="middle" x="193.69" y="-35.36" font-family="sans-serif" font-size="16.00">Dashboard</text>
</g>
<!-- Devices -->
<g id="node2" class="node">
<title>Devices</title>
<polygon fill="none" stroke="black" stroke-width="2" points="526.9,-0.73 531.51,-1.21 536.05,-1.79 540.51,-2.48 544.86,-3.28 549.1,-4.18 553.2,-5.19 557.15,-6.3 560.93,-7.5 564.53,-8.8 567.93,-10.18 571.13,-11.65 574.11,-13.2 576.87,-14.83 579.39,-16.53 581.66,-18.3 583.69,-20.13 585.47,-22.01 586.99,-23.95 588.26,-25.94 589.27,-27.97 590.03,-30.04 590.53,-32.14 590.78,-34.26 590.79,-36.4 590.56,-38.56 590.09,-40.73 589.4,-42.9 588.49,-45.07 587.38,-47.23 586.06,-49.38 584.56,-51.51 582.88,-53.62 581.03,-55.69 579.02,-57.73 576.87,-59.73 574.59,-61.68 572.18,-63.59 569.66,-65.43 567.04,-67.22 564.33,-68.94 561.53,-70.59 558.67,-72.17 555.74,-73.67 552.76,-75.08 549.74,-76.41 546.68,-77.65 543.58,-78.79 540.47,-79.84 537.33,-80.79 534.18,-81.63 531.03,-82.37 527.87,-83 524.71,-83.53 521.55,-83.94 518.4,-84.23 515.26,-84.42 512.13,-84.49 509.02,-84.44 505.92,-84.28 502.84,-84.01 499.78,-83.62 496.74,-83.11 493.73,-82.5 490.74,-81.77 487.78,-80.93 484.86,-79.98 481.97,-78.93 479.12,-77.77 476.31,-76.52 473.54,-75.17 470.83,-73.72 468.18,-72.19 465.59,-70.57 463.07,-68.87 460.63,-67.1 458.27,-65.25 456.01,-63.34 453.84,-61.36 451.79,-59.33 449.85,-57.26 448.03,-55.14 446.36,-52.98 444.83,-50.79 443.45,-48.57 442.24,-46.34 441.2,-44.09 440.35,-41.84 439.68,-39.59 439.22,-37.35 438.96,-35.12 438.92,-32.91 439.1,-30.73 439.5,-28.58 440.14,-26.47 441.01,-24.4 442.12,-22.39 443.47,-20.43 445.06,-18.53 446.9,-16.71 448.97,-14.95 451.27,-13.28 453.81,-11.68 456.57,-10.18 459.55,-8.76 462.74,-7.44 466.13,-6.22 469.71,-5.1 473.47,-4.09 477.39,-3.18 481.47,-2.38 485.68,-1.7 490.02,-1.13 494.46,-0.67 498.98,-0.33 503.57,-0.11 508.22,0 512.89,-0.01 517.57,-0.14 522.25,-0.38 526.9,-0.73"/>
<text text-anchor="middle" x="513.69" y="-35.36" font-family="sans-serif" font-size="16.00">Devices</text>
</g>
<!-- Metrics -->
<g id="node3" class="node">
<title>Metrics</title>
<polygon fill="none" stroke="black" stroke-width="2" points="127.6,-212.24 124.27,-214.06 120.84,-215.78 117.32,-217.4 113.72,-218.89 110.07,-220.27 106.36,-221.52 102.63,-222.64 98.88,-223.62 95.11,-224.46 91.36,-225.15 87.62,-225.7 83.91,-226.09 80.24,-226.33 76.62,-226.42 73.06,-226.36 69.57,-226.14 66.16,-225.77 62.83,-225.25 59.6,-224.58 56.47,-223.76 53.44,-222.81 50.53,-221.72 47.73,-220.5 45.06,-219.15 42.51,-217.69 40.08,-216.11 37.79,-214.43 35.63,-212.65 33.6,-210.77 31.71,-208.82 29.95,-206.79 28.33,-204.69 26.85,-202.53 25.51,-200.33 24.3,-198.08 23.23,-195.8 22.29,-193.5 21.5,-191.18 20.84,-188.85 20.31,-186.52 19.92,-184.2 19.66,-181.89 19.54,-179.6 19.56,-177.34 19.71,-175.11 19.99,-172.93 20.41,-170.78 20.97,-168.69 21.66,-166.66 22.48,-164.68 23.45,-162.76 24.54,-160.91 25.78,-159.13 27.15,-157.42 28.65,-155.79 30.3,-154.23 32.08,-152.75 33.99,-151.34 36.04,-150.02 38.22,-148.78 40.53,-147.62 42.97,-146.54 45.54,-145.54 48.23,-144.63 51.04,-143.8 53.96,-143.05 57,-142.38 60.14,-141.8 63.38,-141.29 66.71,-140.88 70.13,-140.54 73.62,-140.29 77.18,-140.12 80.8,-140.03 84.47,-140.02 88.18,-140.1 91.91,-140.26 95.66,-140.51 99.42,-140.84 103.16,-141.26 106.89,-141.76 110.58,-142.35 114.22,-143.02 117.8,-143.78 121.3,-144.63 124.72,-145.57 128.03,-146.59 131.23,-147.7 134.31,-148.9 137.24,-150.19 140.01,-151.56 142.63,-153.01 145.06,-154.55 147.31,-156.17 149.37,-157.87 151.21,-159.65 152.85,-161.5 154.26,-163.43 155.44,-165.42 156.39,-167.48 157.1,-169.59 157.58,-171.76 157.81,-173.97 157.79,-176.23 157.53,-178.53 157.03,-180.86 156.29,-183.21 155.31,-185.58 154.1,-187.95 152.66,-190.32 151,-192.69 149.12,-195.04 147.04,-197.37 144.77,-199.66 142.31,-201.91 139.67,-204.12 136.87,-206.26 133.92,-208.33 130.82,-210.33 127.6,-212.24"/>
<text text-anchor="middle" x="83.69" y="-173.06" font-family="sans-serif" font-size="16.00">Metrics</text>
</g>
<!-- Metrics&#45;&gt;Dashboard -->
<g id="edge1" class="edge">
<title>Metrics&#45;&gt;Dashboard</title>
<path fill="none" stroke="black" stroke-width="2" d="M98.18,-140.56C104.01,-127.78 111.49,-113.93 120.44,-102.62 127.04,-94.28 135.01,-86.35 143.23,-79.16"/>
<text text-anchor="middle" x="150.32" y="-103.97" font-family="sans-serif" font-size="12.00">connect&#45;go</text>
<polygon fill="white" stroke="none" points="136.73,-70.79 136.73,-87.54 149.73,-87.54 149.73,-70.79 136.73,-70.79"/>
<text text-anchor="start" x="138.73" y="-74.14" font-family="sans-serif" font-size="12.00">D</text>
<polygon fill="white" stroke="none" points="91.68,-132.18 91.68,-148.93 104.68,-148.93 104.68,-132.18 91.68,-132.18"/>
<text text-anchor="start" x="93.68" y="-135.53" font-family="sans-serif" font-size="12.00">U</text>
</g>
<!-- Samples -->
<g id="node4" class="node">
<title>Samples</title>
<polygon fill="none" stroke="black" stroke-width="2" points="109.87,-359.28 105.29,-360.28 100.66,-361.16 96.01,-361.92 91.34,-362.57 86.7,-363.08 82.08,-363.47 77.5,-363.72 72.99,-363.84 68.56,-363.82 64.22,-363.67 59.99,-363.39 55.88,-362.97 51.9,-362.41 48.07,-361.72 44.4,-360.9 40.9,-359.95 37.56,-358.87 34.41,-357.67 31.45,-356.36 28.68,-354.93 26.1,-353.38 23.73,-351.74 21.56,-350 19.58,-348.16 17.82,-346.24 16.25,-344.24 14.88,-342.17 13.71,-340.03 12.74,-337.84 11.96,-335.6 11.36,-333.31 10.95,-331 10.71,-328.66 10.65,-326.3 10.76,-323.93 11.03,-321.56 11.46,-319.19 12.04,-316.84 12.77,-314.51 13.64,-312.21 14.64,-309.94 15.78,-307.72 17.05,-305.55 18.44,-303.43 19.95,-301.37 21.57,-299.37 23.32,-297.45 25.17,-295.6 27.13,-293.83 29.19,-292.15 31.36,-290.56 33.63,-289.05 36,-287.64 38.47,-286.33 41.03,-285.11 43.7,-284 46.45,-282.99 49.3,-282.08 52.24,-281.27 55.27,-280.57 58.39,-279.97 61.59,-279.48 64.88,-279.09 68.24,-278.8 71.67,-278.62 75.18,-278.54 78.75,-278.56 82.38,-278.68 86.06,-278.9 89.79,-279.22 93.56,-279.63 97.36,-280.14 101.17,-280.74 105,-281.43 108.83,-282.21 112.65,-283.07 116.45,-284.02 120.21,-285.05 123.92,-286.17 127.57,-287.36 131.15,-288.62 134.64,-289.96 138.03,-291.37 141.3,-292.85 144.43,-294.4 147.43,-296.01 150.26,-297.68 152.92,-299.4 155.4,-301.18 157.67,-303.02 159.73,-304.9 161.57,-306.82 163.18,-308.79 164.53,-310.79 165.64,-312.83 166.48,-314.89 167.06,-316.98 167.36,-319.09 167.38,-321.22 167.13,-323.35 166.58,-325.49 165.76,-327.63 164.65,-329.76 163.26,-331.88 161.59,-333.98 159.65,-336.06 157.45,-338.11 154.98,-340.13 152.28,-342.1 149.33,-344.03 146.16,-345.9 142.77,-347.7 139.19,-349.45 135.42,-351.12 131.48,-352.71 127.4,-354.21 123.17,-355.63 118.83,-356.95 114.39,-358.17 109.87,-359.28"/>
<text text-anchor="middle" x="83.69" y="-312.66" font-family="sans-serif" font-size="16.00">Samples</text>
</g>
<!-- Samples&#45;&gt;Metrics -->
<g id="edge2" class="edge">
<title>Samples&#45;&gt;Metrics</title>
<path fill="none" stroke="black" stroke-width="2" d="M83.69,-278.44C83.69,-262.1 83.69,-243.14 83.69,-226.3"/>
<text text-anchor="middle" x="100.19" y="-245.99" font-family="sans-serif" font-size="12.00">gRPC</text>
<polygon fill="white" stroke="none" points="61.19,-216.93 61.19,-235.68 76.19,-235.68 76.19,-216.93 61.19,-216.93"/>
<polyline fill="none" stroke="black" points="76.19,-216.93 76.19,-235.68"/>
<text text-anchor="start" x="64.19" y="-221.28" font-family="sans-serif" font-size="12.00">D</text>
<polygon fill="white" stroke="none" points="76.19,-216.93 76.19,-235.68 106.19,-235.68 106.19,-216.93 76.19,-216.93"/>
<polygon fill="none" stroke="black" points="76.19,-216.93 76.19,-235.68 106.19,-235.68 106.19,-216.93 76.19,-216.93"/>
<text text-anchor="start" x="79.19" y="-221.28" font-family="sans-serif" font-size="12.00">ACL</text>
<polygon fill="white" stroke="none" points="60.07,-269.07 60.07,-287.82 75.07,-287.82 75.07,-269.07 60.07,-269.07"/>
<polyline fill="none" stroke="black" points="75.07,-269.07 75.07,-287.82"/>
<text text-anchor="start" x="63.07" y="-273.42" font-family="sans-serif" font-size="12.00">U</text>
<polygon fill="white" stroke="none" points="75.07,-269.07 75.07,-287.82 107.32,-287.82 107.32,-269.07 75.07,-269.07"/>
<polygon fill="none" stroke="black" points="75.07,-269.07 75.07,-287.82 107.32,-287.82 107.32,-269.07 75.07,-269.07"/>
<text text-anchor="start" x="78.07" y="-273.42" font-family="sans-serif" font-size="12.00">OHS</text>
</g>
<!-- UserAuthorization -->
<g id="node5" class="node">
<title>UserAuthorization</title>
<polygon fill="none" stroke="black" stroke-width="2" points="476.78,-282.85 483.74,-284.18 490.48,-285.6 497,-287.12 503.24,-288.71 509.2,-290.38 514.84,-292.12 520.15,-293.93 525.09,-295.8 529.66,-297.71 533.83,-299.68 537.6,-301.69 540.93,-303.73 543.83,-305.79 546.29,-307.89 548.29,-310 549.84,-312.12 550.93,-314.24 551.56,-316.37 551.74,-318.49 551.46,-320.61 550.74,-322.71 549.59,-324.79 548.01,-326.84 546.02,-328.87 543.63,-330.87 540.85,-332.83 537.71,-334.75 534.23,-336.63 530.41,-338.46 526.3,-340.23 521.89,-341.96 517.22,-343.62 512.31,-345.23 507.19,-346.77 501.86,-348.25 496.37,-349.66 490.72,-350.99 484.95,-352.25 479.07,-353.44 473.1,-354.54 467.08,-355.57 461,-356.5 454.9,-357.36 448.79,-358.12 442.69,-358.8 436.62,-359.38 430.58,-359.86 424.6,-360.25 418.68,-360.55 412.83,-360.74 407.07,-360.83 401.41,-360.82 395.85,-360.7 390.39,-360.49 385.06,-360.16 379.84,-359.73 374.75,-359.2 369.79,-358.55 364.97,-357.81 360.28,-356.95 355.73,-355.99 351.33,-354.93 347.06,-353.77 342.95,-352.5 338.98,-351.14 335.17,-349.68 331.51,-348.13 328.01,-346.49 324.67,-344.76 321.5,-342.95 318.5,-341.06 315.67,-339.1 313.03,-337.07 310.57,-334.98 308.31,-332.83 306.25,-330.63 304.4,-328.39 302.77,-326.11 301.36,-323.79 300.19,-321.45 299.26,-319.1 298.59,-316.74 298.18,-314.37 298.04,-312.01 298.18,-309.67 298.62,-307.34 299.35,-305.05 300.39,-302.79 301.74,-300.58 303.41,-298.43 305.41,-296.33 307.74,-294.3 310.4,-292.34 313.39,-290.47 316.73,-288.69 320.39,-287 324.39,-285.4 328.72,-283.92 333.37,-282.54 338.33,-281.28 343.6,-280.14 349.16,-279.12 355,-278.23 361.11,-277.47 367.47,-276.83 374.06,-276.33 380.85,-275.96 387.84,-275.73 394.99,-275.63 402.28,-275.66 409.69,-275.82 417.18,-276.12 424.73,-276.54 432.32,-277.09 439.9,-277.76 447.46,-278.55 454.95,-279.46 462.36,-280.49 469.65,-281.61 476.78,-282.85"/>
<text text-anchor="middle" x="416.69" y="-312.66" font-family="sans-serif" font-size="16.00">UserAuthorization</text>
</g>
<!-- UserAuthorization&#45;&gt;Dashboard -->
<g id="edge3" class="edge">
<title>UserAuthorization&#45;&gt;Dashboard</title>
<path fill="none" stroke="black" stroke-width="2" d="M305.07,-296.09C266.51,-282.52 227.05,-260.93 203.19,-226.64 174.25,-185.04 177.59,-124.4 184.28,-84.41"/>
<text text-anchor="middle" x="288.44" y="-174.98" font-family="sans-serif" font-size="12.00">Customer/Supplier (connect&#45;go)</text>
<polygon fill="white" stroke="none" points="177.78,-76.04 177.78,-92.79 190.78,-92.79 190.78,-76.04 177.78,-76.04"/>
<text text-anchor="start" x="179.78" y="-79.39" font-family="sans-serif" font-size="12.00">D</text>
<polygon fill="white" stroke="none" points="298.57,-287.71 298.57,-304.46 311.57,-304.46 311.57,-287.71 298.57,-287.71"/>
<text text-anchor="start" x="300.57" y="-291.06" font-family="sans-serif" font-size="12.00">U</text>
</g>
<!-- UserManagement -->
<g id="node6" class="node">
<title>UserManagement</title>
<polygon fill="none" stroke="black" stroke-width="2" points="597.1,-210.76 591.41,-212.69 585.52,-214.52 579.47,-216.25 573.26,-217.86 566.93,-219.36 560.5,-220.73 553.98,-221.96 547.41,-223.07 540.81,-224.03 534.19,-224.84 527.58,-225.51 521,-226.02 514.47,-226.38 508.01,-226.59 501.63,-226.64 495.36,-226.54 489.2,-226.28 483.17,-225.86 477.29,-225.3 471.56,-224.59 466.01,-223.74 460.63,-222.75 455.44,-221.62 450.45,-220.36 445.67,-218.98 441.1,-217.49 436.74,-215.88 432.61,-214.17 428.7,-212.37 425.02,-210.47 421.57,-208.5 418.36,-206.46 415.39,-204.36 412.65,-202.2 410.15,-199.99 407.89,-197.75 405.87,-195.48 404.1,-193.19 402.57,-190.89 401.27,-188.58 400.23,-186.27 399.42,-183.97 398.86,-181.69 398.55,-179.44 398.48,-177.21 398.67,-175.02 399.09,-172.86 399.77,-170.76 400.7,-168.7 401.88,-166.7 403.31,-164.75 405,-162.87 406.94,-161.05 409.13,-159.3 411.59,-157.62 414.29,-156.01 417.25,-154.47 420.46,-153 423.93,-151.62 427.64,-150.3 431.61,-149.07 435.81,-147.91 440.25,-146.83 444.93,-145.83 449.83,-144.91 454.95,-144.07 460.28,-143.3 465.81,-142.62 471.53,-142.01 477.43,-141.48 483.49,-141.04 489.7,-140.67 496.05,-140.38 502.51,-140.18 509.08,-140.05 515.72,-140.01 522.43,-140.05 529.17,-140.17 535.94,-140.38 542.7,-140.67 549.44,-141.05 556.13,-141.52 562.75,-142.08 569.26,-142.72 575.66,-143.45 581.92,-144.28 588,-145.19 593.89,-146.2 599.57,-147.29 605,-148.48 610.18,-149.76 615.07,-151.13 619.66,-152.58 623.93,-154.13 627.86,-155.76 631.43,-157.48 634.63,-159.27 637.45,-161.15 639.86,-163.1 641.87,-165.12 643.47,-167.21 644.64,-169.36 645.38,-171.56 645.69,-173.82 645.58,-176.12 645.03,-178.46 644.05,-180.83 642.66,-183.23 640.84,-185.64 638.63,-188.06 636.01,-190.48 633.01,-192.89 629.64,-195.28 625.92,-197.64 621.85,-199.97 617.46,-202.25 612.78,-204.49 607.8,-206.65 602.57,-208.75 597.1,-210.76"/>
<text text-anchor="middle" x="513.69" y="-173.06" font-family="sans-serif" font-size="16.00">UserManagement</text>
</g>
<!-- UserAuthorization&#45;&gt;UserManagement -->
<g id="edge4" class="edge">
<title>UserAuthorization&#45;&gt;UserManagement</title>
<path fill="none" stroke="black" stroke-width="2" d="M445.27,-278.07C456.78,-261.74 470.11,-242.84 481.92,-226.08"/>
<text text-anchor="middle" x="520.19" y="-245.99" font-family="sans-serif" font-size="12.00">Partnership (gRPC)</text>
</g>
<!-- UserManagement&#45;&gt;Dashboard -->
<g id="edge6" class="edge">
<title>UserManagement&#45;&gt;Dashboard</title>
<path fill="none" stroke="black" stroke-width="2" d="M438.26,-147.02C385.97,-124.85 316.77,-95.5 265.32,-73.68"/>
<text text-anchor="middle" x="392.32" y="-103.97" font-family="sans-serif" font-size="12.00">connect&#45;go</text>
<polygon fill="white" stroke="none" points="258.82,-65.31 258.82,-82.06 271.82,-82.06 271.82,-65.31 258.82,-65.31"/>
<text text-anchor="start" x="260.82" y="-68.66" font-family="sans-serif" font-size="12.00">D</text>
<polygon fill="white" stroke="none" points="431.76,-138.64 431.76,-155.39 444.76,-155.39 444.76,-138.64 431.76,-138.64"/>
<text text-anchor="start" x="433.76" y="-141.99" font-family="sans-serif" font-size="12.00">U</text>
</g>
<!-- UserManagement&#45;&gt;Devices -->
<g id="edge5" class="edge">
<title>UserManagement&#45;&gt;Devices</title>
<path fill="none" stroke="black" stroke-width="2" d="M513.69,-139.76C513.69,-122.54 513.69,-102.31 513.69,-84.84"/>
<text text-anchor="middle" x="530.19" y="-103.97" font-family="sans-serif" font-size="12.00">gRPC</text>
<polygon fill="white" stroke="none" points="494.94,-75.46 494.94,-94.21 509.94,-94.21 509.94,-75.46 494.94,-75.46"/>
<polyline fill="none" stroke="black" points="509.94,-75.46 509.94,-94.21"/>
<text text-anchor="start" x="497.94" y="-79.81" font-family="sans-serif" font-size="12.00">D</text>
<polygon fill="white" stroke="none" points="509.94,-75.46 509.94,-94.21 532.44,-94.21 532.44,-75.46 509.94,-75.46"/>
<polygon fill="none" stroke="black" points="509.94,-75.46 509.94,-94.21 532.44,-94.21 532.44,-75.46 509.94,-75.46"/>
<text text-anchor="start" x="512.94" y="-79.81" font-family="sans-serif" font-size="12.00">CF</text>
<polygon fill="white" stroke="none" points="507.19,-131.38 507.19,-148.13 520.19,-148.13 520.19,-131.38 507.19,-131.38"/>
<text text-anchor="start" x="509.19" y="-134.73" font-family="sans-serif" font-size="12.00">U</text>
</g>
</g>
</svg>
