<svg width="1000px" height="247px"
 viewBox="0.00 0.00 1261.00 312.27" xmlns="http://www.w3.org/2000/svg" xmlns:xlink="http://www.w3.org/1999/xlink">
<g id="graph0" class="graph" transform="scale(1.0 1.0) rotate(0) translate(4 308.27)">
<title>ContextMapGraph</title>
<polygon fill="white" stroke="none" points="-4,4 -4,-308.27 1257,-308.27 1257,4 -4,4"/>
<g id="clust1" class="cluster">
<title>cluster_GenericSubgraph</title>
<polygon fill="none" stroke="white" points="8,-8 8,-118.15 1245,-118.15 1245,-8 8,-8"/>
</g>
<g id="clust2" class="cluster">
<title>cluster_Teams_Subgraph</title>
<polygon fill="none" stroke="white" points="103,-150.9 103,-296.27 1033,-296.27 1033,-150.9 103,-150.9"/>
</g>
<!-- CircleTeam -->
<g id="node1" class="node">
<title>CircleTeam</title>
<polygon fill="none" stroke="black" stroke-width="2" points="263.89,-165.15 272.13,-165.61 280.27,-166.22 288.28,-167 296.13,-167.92 303.78,-169 311.2,-170.22 318.38,-171.59 325.27,-173.1 331.85,-174.75 338.11,-176.53 344.01,-178.44 349.53,-180.47 354.67,-182.62 359.4,-184.87 363.72,-187.23 367.6,-189.69 371.05,-192.24 374.06,-194.88 376.61,-197.59 378.72,-200.37 380.39,-203.21 381.61,-206.11 382.39,-209.06 382.74,-212.04 382.67,-215.05 382.18,-218.09 381.3,-221.14 380.03,-224.2 378.39,-227.26 376.4,-230.3 374.07,-233.33 371.42,-236.33 368.47,-239.3 365.23,-242.23 361.74,-245.1 357.99,-247.92 354.02,-250.67 349.85,-253.35 345.48,-255.95 340.94,-258.46 336.25,-260.88 331.42,-263.2 326.47,-265.41 321.41,-267.51 316.26,-269.49 311.02,-271.34 305.72,-273.07 300.36,-274.66 294.95,-276.11 289.5,-277.43 284.02,-278.59 278.52,-279.61 273,-280.47 267.47,-281.18 261.94,-281.73 256.4,-282.12 250.86,-282.35 245.34,-282.43 239.82,-282.34 234.32,-282.09 228.83,-281.68 223.37,-281.1 217.93,-280.38 212.52,-279.49 207.14,-278.45 201.8,-277.26 196.51,-275.92 191.28,-274.43 186.1,-272.81 180.99,-271.05 175.96,-269.15 171.02,-267.13 166.17,-264.99 161.44,-262.73 156.83,-260.37 152.36,-257.9 148.05,-255.34 143.9,-252.68 139.93,-249.95 136.17,-247.14 132.62,-244.27 129.31,-241.34 126.25,-238.35 123.47,-235.33 120.97,-232.27 118.78,-229.19 116.91,-226.1 115.38,-222.99 114.2,-219.89 113.39,-216.8 112.97,-213.73 112.95,-210.68 113.33,-207.67 114.12,-204.71 115.35,-201.79 117,-198.94 119.09,-196.16 121.61,-193.45 124.57,-190.83 127.96,-188.3 131.78,-185.87 136.03,-183.54 140.69,-181.33 145.75,-179.23 151.19,-177.25 157.01,-175.41 163.19,-173.7 169.69,-172.12 176.51,-170.69 183.61,-169.41 190.97,-168.27 198.56,-167.29 206.36,-166.47 214.32,-165.8 222.43,-165.29 230.64,-164.94 238.93,-164.75 247.26,-164.72 255.59,-164.86 263.89,-165.15"/>
<image xlink:href="/var/folders/j0/w0dgb2354nd6cbjsr0w1jm540000gn/T/GraphvizJava/team-icon.png" width="37px" height="36px" preserveAspectRatio="xMinYMin meet" x="181" y="-241.586"/>
<text text-anchor="start" x="252.25" y="-227.39" font-family="sans-serif" font-weight="bold" font-size="16.00">Team</text>
<text text-anchor="start" x="232" y="-206.39" font-family="sans-serif" font-size="16.00">CircleTeam</text>
</g>
<!-- Dashboard -->
<g id="node2" class="node">
<title>Dashboard</title>
<polygon fill="none" stroke="black" stroke-width="2" points="15.87,-59.65 16.24,-56.89 16.85,-54.16 17.7,-51.47 18.77,-48.82 20.07,-46.24 21.6,-43.72 23.35,-41.28 25.32,-38.93 27.5,-36.68 29.88,-34.53 32.46,-32.5 35.24,-30.58 38.2,-28.79 41.33,-27.13 44.63,-25.61 48.09,-24.22 51.7,-22.98 55.45,-21.88 59.33,-20.93 63.33,-20.12 67.43,-19.46 71.63,-18.95 75.91,-18.58 80.26,-18.35 84.68,-18.26 89.14,-18.31 93.64,-18.49 98.16,-18.79 102.69,-19.22 107.23,-19.77 111.74,-20.43 116.23,-21.2 120.68,-22.07 125.08,-23.04 129.41,-24.1 133.67,-25.23 137.84,-26.45 141.91,-27.74 145.87,-29.1 149.71,-30.51 153.41,-31.98 156.98,-33.5 160.39,-35.07 163.64,-36.67 166.72,-38.31 169.62,-39.98 172.34,-41.68 174.86,-43.41 177.18,-45.15 179.29,-46.91 181.19,-48.69 182.88,-50.48 184.34,-52.29 185.57,-54.1 186.57,-55.92 187.35,-57.75 187.88,-59.58 188.19,-61.42 188.25,-63.26 188.08,-65.1 187.67,-66.94 187.03,-68.78 186.16,-70.61 185.06,-72.45 183.73,-74.28 182.17,-76.1 180.4,-77.91 178.41,-79.7 176.22,-81.49 173.82,-83.25 171.23,-85 168.45,-86.72 165.48,-88.41 162.35,-90.07 159.05,-91.69 155.6,-93.27 152,-94.8 148.26,-96.28 144.4,-97.71 140.43,-99.06 136.34,-100.35 132.17,-101.56 127.92,-102.69 123.59,-103.73 119.21,-104.68 114.77,-105.52 110.31,-106.26 105.82,-106.89 101.32,-107.39 96.82,-107.78 92.34,-108.03 87.89,-108.16 83.47,-108.14 79.1,-107.99 74.79,-107.69 70.56,-107.25 66.41,-106.66 62.36,-105.92 58.42,-105.04 54.59,-104 50.9,-102.82 47.34,-101.5 43.93,-100.03 40.68,-98.43 37.59,-96.69 34.69,-94.82 31.96,-92.83 29.42,-90.73 27.09,-88.51 24.95,-86.2 23.03,-83.79 21.32,-81.3 19.84,-78.74 18.57,-76.12 17.54,-73.44 16.74,-70.72 16.17,-67.97 15.83,-65.2 15.73,-62.42 15.87,-59.65"/>
<text text-anchor="middle" x="102" y="-56.12" font-family="sans-serif" font-size="16.00">Dashboard</text>
</g>
<!-- CircleTeam&#45;&gt;Dashboard -->
<g id="edge1" class="edge">
<title>CircleTeam&#45;&gt;Dashboard</title>
<path fill="none" stroke="#686868" stroke-dasharray="5,2" d="M196.29,-167.15C178.86,-148.1 159.59,-127.03 143.04,-108.93"/>
<polygon fill="#686868" stroke="#686868" points="145.99,-106.98 136.66,-101.96 140.82,-111.7 145.99,-106.98"/>
<text text-anchor="middle" x="200.75" y="-129.5" font-family="sans-serif" font-size="12.00" fill="#686868"> &#160;«realizes»</text>
</g>
<!-- RectangleTeam -->
<g id="node3" class="node">
<title>RectangleTeam</title>
<polygon fill="none" stroke="black" stroke-width="2" points="680.8,-187 686.95,-189.99 692.74,-193.05 698.15,-196.19 703.15,-199.39 707.71,-202.63 711.83,-205.91 715.48,-209.21 718.64,-212.52 721.3,-215.82 723.45,-219.12 725.08,-222.4 726.18,-225.64 726.75,-228.84 726.79,-231.99 726.28,-235.08 725.24,-238.1 723.68,-241.05 721.59,-243.91 718.99,-246.69 715.89,-249.37 712.3,-251.95 708.25,-254.43 703.74,-256.8 698.8,-259.06 693.45,-261.2 687.71,-263.23 681.61,-265.14 675.17,-266.93 668.42,-268.6 661.39,-270.15 654.11,-271.58 646.61,-272.88 638.91,-274.07 631.05,-275.13 623.05,-276.07 614.95,-276.89 606.77,-277.59 598.54,-278.17 590.29,-278.63 582.06,-278.97 573.85,-279.2 565.71,-279.31 557.65,-279.3 549.7,-279.18 541.88,-278.94 534.21,-278.59 526.7,-278.12 519.38,-277.53 512.27,-276.84 505.37,-276.02 498.7,-275.09 492.28,-274.05 486.11,-272.89 480.2,-271.62 474.56,-270.23 469.2,-268.72 464.12,-267.11 459.33,-265.38 454.83,-263.53 450.63,-261.58 446.72,-259.51 443.11,-257.34 439.8,-255.06 436.79,-252.68 434.08,-250.2 431.67,-247.62 429.56,-244.95 427.74,-242.19 426.23,-239.35 425.01,-236.44 424.09,-233.45 423.46,-230.4 423.13,-227.3 423.1,-224.15 423.37,-220.96 423.93,-217.75 424.78,-214.51 425.94,-211.26 427.39,-208.02 429.14,-204.78 431.19,-201.57 433.55,-198.4 436.2,-195.27 439.15,-192.19 442.41,-189.19 445.97,-186.26 449.82,-183.43 453.98,-180.71 458.43,-178.1 463.18,-175.61 468.21,-173.27 473.54,-171.07 479.14,-169.03 485.02,-167.15 491.16,-165.45 497.56,-163.93 504.2,-162.6 511.08,-161.47 518.18,-160.54 525.48,-159.81 532.98,-159.3 540.64,-158.99 548.46,-158.9 556.41,-159.02 564.47,-159.36 572.62,-159.91 580.84,-160.67 589.09,-161.63 597.35,-162.8 605.6,-164.17 613.8,-165.73 621.93,-167.47 629.96,-169.39 637.85,-171.48 645.59,-173.73 653.13,-176.12 660.45,-178.66 667.52,-181.33 674.31,-184.11 680.8,-187"/>
<image xlink:href="/var/folders/j0/w0dgb2354nd6cbjsr0w1jm540000gn/T/GraphvizJava/team-icon.png" width="37px" height="36px" preserveAspectRatio="xMinYMin meet" x="482.5" y="-241.586"/>
<text text-anchor="start" x="569.25" y="-227.39" font-family="sans-serif" font-weight="bold" font-size="16.00">Team</text>
<text text-anchor="start" x="533.25" y="-206.39" font-family="sans-serif" font-size="16.00">RectangleTeam</text>
</g>
<!-- UserManagement -->
<g id="node4" class="node">
<title>UserManagement</title>
<polygon fill="none" stroke="black" stroke-width="2" points="206.72,-65.55 206.14,-62.8 205.89,-60.05 205.99,-57.32 206.43,-54.63 207.21,-51.98 208.33,-49.38 209.8,-46.85 211.59,-44.39 213.73,-42.01 216.19,-39.72 218.97,-37.53 222.07,-35.45 225.47,-33.47 229.17,-31.62 233.16,-29.88 237.42,-28.27 241.95,-26.8 246.73,-25.45 251.75,-24.25 256.99,-23.18 262.44,-22.24 268.08,-21.45 273.89,-20.79 279.86,-20.27 285.97,-19.88 292.21,-19.62 298.54,-19.49 304.96,-19.49 311.44,-19.6 317.97,-19.84 324.52,-20.19 331.07,-20.64 337.62,-21.2 344.12,-21.86 350.58,-22.61 356.96,-23.45 363.25,-24.37 369.44,-25.37 375.49,-26.44 381.4,-27.58 387.15,-28.78 392.72,-30.04 398.1,-31.36 403.26,-32.73 408.21,-34.14 412.92,-35.6 417.38,-37.1 421.58,-38.63 425.5,-40.2 429.15,-41.8 432.51,-43.44 435.57,-45.1 438.32,-46.78 440.76,-48.49 442.89,-50.23 444.69,-51.99 446.17,-53.76 447.33,-55.56 448.15,-57.38 448.65,-59.21 448.82,-61.06 448.66,-62.93 448.18,-64.81 447.38,-66.7 446.26,-68.6 444.82,-70.51 443.08,-72.42 441.03,-74.34 438.69,-76.25 436.05,-78.16 433.14,-80.07 429.96,-81.96 426.51,-83.84 422.81,-85.69 418.87,-87.53 414.69,-89.33 410.29,-91.09 405.68,-92.81 400.87,-94.48 395.88,-96.09 390.71,-97.65 385.39,-99.13 379.91,-100.54 374.31,-101.87 368.58,-103.1 362.75,-104.24 356.83,-105.28 350.83,-106.2 344.77,-107.01 338.66,-107.7 332.52,-108.26 326.37,-108.68 320.21,-108.97 314.07,-109.11 307.95,-109.11 301.88,-108.96 295.87,-108.66 289.94,-108.21 284.1,-107.6 278.36,-106.83 272.74,-105.92 267.26,-104.85 261.93,-103.63 256.76,-102.26 251.77,-100.75 246.97,-99.1 242.38,-97.31 238.01,-95.4 233.87,-93.37 229.98,-91.22 226.34,-88.97 222.97,-86.62 219.87,-84.19 217.07,-81.67 214.55,-79.09 212.35,-76.45 210.46,-73.77 208.88,-71.05 207.64,-68.31 206.72,-65.55"/>
<text text-anchor="middle" x="328" y="-56.12" font-family="sans-serif" font-size="16.00">UserManagement</text>
</g>
<!-- RectangleTeam&#45;&gt;UserManagement -->
<g id="edge3" class="edge">
<title>RectangleTeam&#45;&gt;UserManagement</title>
<path fill="none" stroke="#686868" stroke-dasharray="5,2" d="M482.12,-167.59C452.34,-147.59 419.16,-125.3 391.24,-106.55"/>
<polygon fill="#686868" stroke="#686868" points="393.49,-103.85 383.24,-101.17 389.59,-109.66 393.49,-103.85"/>
<text text-anchor="middle" x="468.75" y="-129.5" font-family="sans-serif" font-size="12.00" fill="#686868"> &#160;«realizes»</text>
</g>
<!-- UserAuthorization -->
<g id="node5" class="node">
<title>UserAuthorization</title>
<polygon fill="none" stroke="black" stroke-width="2" points="470.8,-69.22 469.53,-66.49 468.6,-63.77 468.01,-61.05 467.78,-58.35 467.89,-55.69 468.36,-53.07 469.18,-50.5 470.36,-47.99 471.89,-45.56 473.77,-43.21 475.99,-40.94 478.55,-38.77 481.45,-36.7 484.67,-34.74 488.21,-32.89 492.06,-31.16 496.2,-29.55 500.63,-28.06 505.32,-26.71 510.27,-25.48 515.47,-24.39 520.89,-23.42 526.51,-22.59 532.33,-21.89 538.32,-21.32 544.47,-20.87 550.74,-20.55 557.14,-20.35 563.62,-20.27 570.18,-20.31 576.8,-20.45 583.44,-20.71 590.1,-21.07 596.75,-21.52 603.37,-22.08 609.93,-22.72 616.43,-23.44 622.84,-24.25 629.14,-25.14 635.31,-26.09 641.34,-27.12 647.2,-28.2 652.89,-29.35 658.38,-30.56 663.66,-31.82 668.72,-33.13 673.53,-34.48 678.1,-35.89 682.41,-37.33 686.44,-38.82 690.19,-40.34 693.66,-41.9 696.82,-43.5 699.68,-45.13 702.24,-46.79 704.47,-48.49 706.39,-50.21 707.99,-51.97 709.27,-53.75 710.23,-55.57 710.86,-57.4 711.17,-59.27 711.16,-61.15 710.83,-63.06 710.19,-64.99 709.24,-66.93 707.98,-68.89 706.42,-70.86 704.56,-72.84 702.42,-74.83 700,-76.81 697.3,-78.79 694.33,-80.77 691.11,-82.73 687.64,-84.67 683.93,-86.59 679.99,-88.48 675.83,-90.34 671.46,-92.15 666.89,-93.91 662.13,-95.61 657.19,-97.25 652.09,-98.82 646.84,-100.31 641.45,-101.72 635.92,-103.03 630.28,-104.24 624.54,-105.34 618.7,-106.33 612.79,-107.2 606.82,-107.95 600.79,-108.56 594.73,-109.03 588.64,-109.36 582.55,-109.55 576.47,-109.58 570.41,-109.46 564.38,-109.19 558.41,-108.76 552.5,-108.17 546.67,-107.43 540.94,-106.53 535.33,-105.48 529.84,-104.27 524.49,-102.92 519.3,-101.42 514.28,-99.78 509.45,-98.01 504.81,-96.11 500.4,-94.09 496.21,-91.96 492.26,-89.72 488.57,-87.39 485.14,-84.97 482,-82.47 479.14,-79.91 476.58,-77.3 474.33,-74.63 472.4,-71.94 470.8,-69.22"/>
<text text-anchor="middle" x="591" y="-56.12" font-family="sans-serif" font-size="16.00">UserAuthorization</text>
</g>
<!-- RectangleTeam&#45;&gt;UserAuthorization -->
<g id="edge2" class="edge">
<title>RectangleTeam&#45;&gt;UserAuthorization</title>
<path fill="none" stroke="#686868" stroke-dasharray="5,2" d="M574.67,-159.94C576.86,-147.08 579.15,-133.62 581.31,-120.98"/>
<polygon fill="#686868" stroke="#686868" points="584.75,-121.59 582.98,-111.14 577.85,-120.41 584.75,-121.59"/>
<text text-anchor="middle" x="609.75" y="-129.5" font-family="sans-serif" font-size="12.00" fill="#686868"> &#160;«realizes»</text>
</g>
<!-- TriangleTeam -->
<g id="node6" class="node">
<title>TriangleTeam</title>
<polygon fill="none" stroke="black" stroke-width="2" points="1018.88,-239.48 1016.56,-243.21 1013.88,-246.87 1010.86,-250.44 1007.51,-253.92 1003.83,-257.29 999.83,-260.53 995.54,-263.64 990.96,-266.6 986.11,-269.39 981,-272.02 975.64,-274.47 970.06,-276.73 964.27,-278.79 958.28,-280.65 952.1,-282.31 945.77,-283.75 939.29,-284.98 932.68,-286 925.96,-286.8 919.14,-287.38 912.25,-287.75 905.3,-287.91 898.3,-287.86 891.28,-287.6 884.25,-287.15 877.23,-286.5 870.24,-285.67 863.29,-284.66 856.4,-283.49 849.59,-282.15 842.88,-280.65 836.27,-279.02 829.79,-277.25 823.45,-275.35 817.27,-273.34 811.26,-271.23 805.44,-269.02 799.82,-266.73 794.41,-264.36 789.24,-261.92 784.31,-259.43 779.63,-256.89 775.22,-254.3 771.09,-251.68 767.26,-249.04 763.72,-246.37 760.5,-243.7 757.6,-241.01 755.03,-238.32 752.8,-235.63 750.91,-232.95 749.38,-230.28 748.2,-227.62 747.39,-224.98 746.95,-222.36 746.87,-219.76 747.17,-217.18 747.85,-214.63 748.9,-212.11 750.32,-209.61 752.12,-207.15 754.28,-204.71 756.82,-202.32 759.71,-199.95 762.96,-197.62 766.55,-195.34 770.49,-193.09 774.75,-190.89 779.33,-188.74 784.23,-186.63 789.42,-184.58 794.89,-182.59 800.63,-180.66 806.62,-178.8 812.84,-177.01 819.29,-175.3 825.94,-173.67 832.76,-172.13 839.75,-170.69 846.88,-169.35 854.13,-168.12 861.49,-167.01 868.91,-166.02 876.4,-165.16 883.92,-164.43 891.44,-163.85 898.96,-163.42 906.44,-163.15 913.86,-163.04 921.21,-163.1 928.45,-163.34 935.56,-163.75 942.53,-164.34 949.33,-165.12 955.95,-166.09 962.36,-167.25 968.54,-168.59 974.47,-170.13 980.14,-171.85 985.54,-173.77 990.63,-175.86 995.42,-178.14 999.88,-180.59 1004.01,-183.21 1007.79,-185.99 1011.22,-188.92 1014.27,-191.99 1016.96,-195.2 1019.26,-198.54 1021.18,-201.98 1022.71,-205.52 1023.84,-209.15 1024.58,-212.85 1024.93,-216.61 1024.89,-220.4 1024.45,-224.23 1023.63,-228.06 1022.42,-231.9 1020.83,-235.71 1018.88,-239.48"/>
<image xlink:href="/var/folders/j0/w0dgb2354nd6cbjsr0w1jm540000gn/T/GraphvizJava/team-icon.png" width="37px" height="36px" preserveAspectRatio="xMinYMin meet" x="810.5" y="-241.586"/>
<text text-anchor="start" x="890.25" y="-227.39" font-family="sans-serif" font-weight="bold" font-size="16.00">Team</text>
<text text-anchor="start" x="861.38" y="-206.39" font-family="sans-serif" font-size="16.00">TriangleTeam</text>
</g>
<!-- Devices -->
<g id="node7" class="node">
<title>Devices</title>
<polygon fill="none" stroke="black" stroke-width="2" points="767.33,-96.12 763.64,-94.42 760.09,-92.65 756.7,-90.8 753.49,-88.88 750.47,-86.91 747.65,-84.88 745.04,-82.81 742.66,-80.69 740.51,-78.55 738.6,-76.38 736.95,-74.2 735.55,-72 734.41,-69.8 733.53,-67.6 732.92,-65.41 732.58,-63.23 732.51,-61.07 732.71,-58.93 733.17,-56.82 733.89,-54.75 734.86,-52.72 736.08,-50.73 737.54,-48.78 739.24,-46.89 741.16,-45.04 743.29,-43.26 745.62,-41.53 748.15,-39.87 750.85,-38.27 753.71,-36.74 756.73,-35.28 759.89,-33.89 763.17,-32.57 766.56,-31.32 770.04,-30.15 773.61,-29.06 777.25,-28.05 780.94,-27.12 784.67,-26.27 788.43,-25.5 792.21,-24.82 795.99,-24.23 799.76,-23.72 803.52,-23.29 807.24,-22.96 810.93,-22.72 814.57,-22.57 818.15,-22.51 821.67,-22.54 825.12,-22.67 828.5,-22.89 831.79,-23.21 834.99,-23.63 838.11,-24.14 841.12,-24.75 844.04,-25.46 846.86,-26.27 849.57,-27.17 852.18,-28.17 854.68,-29.27 857.07,-30.46 859.36,-31.75 861.53,-33.13 863.59,-34.61 865.53,-36.17 867.36,-37.82 869.08,-39.55 870.68,-41.36 872.17,-43.25 873.53,-45.21 874.78,-47.24 875.9,-49.33 876.9,-51.48 877.78,-53.68 878.53,-55.92 879.14,-58.21 879.62,-60.53 879.97,-62.87 880.18,-65.23 880.24,-67.6 880.15,-69.98 879.92,-72.35 879.53,-74.71 878.99,-77.05 878.29,-79.36 877.42,-81.63 876.39,-83.85 875.19,-86.02 873.82,-88.13 872.27,-90.17 870.56,-92.14 868.67,-94.01 866.6,-95.8 864.36,-97.49 861.95,-99.07 859.37,-100.54 856.63,-101.89 853.72,-103.12 850.65,-104.23 847.43,-105.2 844.07,-106.04 840.56,-106.74 836.93,-107.31 833.17,-107.73 829.31,-108.01 825.35,-108.15 821.29,-108.14 817.17,-107.99 812.98,-107.7 808.75,-107.27 804.49,-106.71 800.21,-106.01 795.93,-105.18 791.66,-104.23 787.43,-103.15 783.25,-101.95 779.13,-100.65 775.09,-99.23 771.15,-97.72 767.33,-96.12"/>
<text text-anchor="middle" x="812" y="-56.12" font-family="sans-serif" font-size="16.00">Devices</text>
</g>
<!-- TriangleTeam&#45;&gt;Devices -->
<g id="edge6" class="edge">
<title>TriangleTeam&#45;&gt;Devices</title>
<path fill="none" stroke="#686868" stroke-dasharray="5,2" d="M859.47,-167.15C852.18,-151.33 844.26,-134.11 837,-118.36"/>
<polygon fill="#686868" stroke="#686868" points="840.34,-117.25 832.98,-109.63 833.98,-120.18 840.34,-117.25"/>
<text text-anchor="middle" x="876.75" y="-129.5" font-family="sans-serif" font-size="12.00" fill="#686868"> &#160;«realizes»</text>
</g>
<!-- Samples -->
<g id="node8" class="node">
<title>Samples</title>
<polygon fill="none" stroke="black" stroke-width="2" points="965.59,-23.68 970.15,-22.63 974.75,-21.7 979.38,-20.89 984.02,-20.21 988.65,-19.65 993.26,-19.21 997.82,-18.92 1002.33,-18.75 1006.76,-18.72 1011.1,-18.83 1015.34,-19.07 1019.46,-19.46 1023.46,-19.97 1027.31,-20.62 1031,-21.41 1034.54,-22.33 1037.9,-23.37 1041.09,-24.54 1044.09,-25.83 1046.91,-27.23 1049.53,-28.75 1051.96,-30.37 1054.18,-32.09 1056.21,-33.91 1058.04,-35.81 1059.67,-37.79 1061.1,-39.85 1062.33,-41.97 1063.38,-44.16 1064.23,-46.39 1064.9,-48.67 1065.38,-50.98 1065.69,-53.32 1065.82,-55.68 1065.79,-58.05 1065.59,-60.42 1065.24,-62.79 1064.73,-65.14 1064.07,-67.48 1063.28,-69.79 1062.34,-72.07 1061.27,-74.3 1060.07,-76.49 1058.75,-78.62 1057.3,-80.7 1055.74,-82.71 1054.06,-84.65 1052.26,-86.51 1050.36,-88.3 1048.35,-90 1046.23,-91.62 1044,-93.14 1041.68,-94.57 1039.25,-95.91 1036.72,-97.15 1034.1,-98.29 1031.37,-99.33 1028.55,-100.27 1025.63,-101.11 1022.63,-101.84 1019.53,-102.46 1016.34,-102.99 1013.07,-103.41 1009.72,-103.73 1006.29,-103.94 1002.79,-104.06 999.22,-104.07 995.58,-103.99 991.89,-103.8 988.16,-103.52 984.38,-103.15 980.56,-102.68 976.73,-102.11 972.88,-101.46 969.03,-100.72 965.18,-99.89 961.36,-98.98 957.56,-97.99 953.82,-96.91 950.13,-95.76 946.51,-94.53 942.98,-93.22 939.55,-91.84 936.24,-90.4 933.05,-88.88 930.01,-87.3 927.12,-85.66 924.41,-83.96 921.88,-82.2 919.55,-80.39 917.43,-78.53 915.53,-76.63 913.87,-74.68 912.44,-72.69 911.27,-70.66 910.37,-68.61 909.73,-66.52 909.36,-64.42 909.27,-62.29 909.46,-60.16 909.94,-58.01 910.7,-55.87 911.74,-53.72 913.07,-51.59 914.67,-49.47 916.54,-47.37 918.68,-45.3 921.08,-43.26 923.73,-41.26 926.62,-39.31 929.73,-37.41 933.06,-35.57 936.59,-33.79 940.3,-32.08 944.19,-30.46 948.23,-28.91 952.41,-27.45 956.71,-26.09 961.11,-24.83 965.59,-23.68"/>
<text text-anchor="middle" x="993" y="-56.12" font-family="sans-serif" font-size="16.00">Samples</text>
</g>
<!-- TriangleTeam&#45;&gt;Samples -->
<g id="edge5" class="edge">
<title>TriangleTeam&#45;&gt;Samples</title>
<path fill="none" stroke="#686868" stroke-dasharray="5,2" d="M925.52,-163.11C937.43,-145.63 950.27,-126.79 961.53,-110.27"/>
<polygon fill="#686868" stroke="#686868" points="964.36,-112.33 967.1,-102.09 958.57,-108.39 964.36,-112.33"/>
<text text-anchor="middle" x="978.75" y="-129.5" font-family="sans-serif" font-size="12.00" fill="#686868"> &#160;«realizes»</text>
</g>
<!-- Metrics -->
<g id="node9" class="node">
<title>Metrics</title>
<polygon fill="none" stroke="black" stroke-width="2" points="1222.45,-86.51 1220.05,-88.84 1217.51,-91.08 1214.84,-93.24 1212.05,-95.29 1209.14,-97.25 1206.14,-99.09 1203.04,-100.8 1199.87,-102.39 1196.62,-103.84 1193.32,-105.16 1189.96,-106.32 1186.57,-107.34 1183.15,-108.2 1179.71,-108.91 1176.26,-109.46 1172.81,-109.85 1169.36,-110.08 1165.94,-110.15 1162.53,-110.06 1159.16,-109.82 1155.83,-109.42 1152.55,-108.88 1149.33,-108.18 1146.16,-107.35 1143.06,-106.38 1140.03,-105.28 1137.08,-104.06 1134.22,-102.71 1131.44,-101.26 1128.76,-99.71 1126.18,-98.06 1123.69,-96.32 1121.32,-94.5 1119.05,-92.61 1116.89,-90.66 1114.86,-88.65 1112.94,-86.6 1111.15,-84.51 1109.48,-82.38 1107.95,-80.23 1106.55,-78.07 1105.28,-75.89 1104.16,-73.71 1103.17,-71.54 1102.33,-69.37 1101.64,-67.22 1101.1,-65.09 1100.71,-62.99 1100.47,-60.91 1100.39,-58.87 1100.47,-56.86 1100.71,-54.89 1101.1,-52.97 1101.67,-51.09 1102.39,-49.26 1103.28,-47.48 1104.34,-45.75 1105.56,-44.07 1106.94,-42.44 1108.49,-40.88 1110.2,-39.36 1112.07,-37.91 1114.1,-36.51 1116.28,-35.16 1118.61,-33.88 1121.09,-32.66 1123.72,-31.5 1126.48,-30.4 1129.37,-29.36 1132.39,-28.38 1135.52,-27.47 1138.77,-26.63 1142.12,-25.85 1145.56,-25.14 1149.08,-24.51 1152.68,-23.94 1156.34,-23.46 1160.06,-23.05 1163.81,-22.72 1167.6,-22.48 1171.4,-22.32 1175.2,-22.25 1179,-22.27 1182.78,-22.39 1186.52,-22.6 1190.22,-22.92 1193.86,-23.33 1197.43,-23.85 1200.91,-24.47 1204.29,-25.2 1207.57,-26.04 1210.72,-26.99 1213.75,-28.05 1216.63,-29.23 1219.35,-30.51 1221.91,-31.9 1224.3,-33.4 1226.51,-35.01 1228.52,-36.72 1230.35,-38.53 1231.97,-40.44 1233.38,-42.44 1234.58,-44.53 1235.56,-46.71 1236.33,-48.96 1236.87,-51.28 1237.2,-53.67 1237.3,-56.11 1237.19,-58.6 1236.85,-61.14 1236.3,-63.7 1235.54,-66.28 1234.57,-68.87 1233.39,-71.47 1232.02,-74.06 1230.46,-76.63 1228.72,-79.17 1226.79,-81.67 1224.7,-84.12 1222.45,-86.51"/>
<text text-anchor="middle" x="1166" y="-56.12" font-family="sans-serif" font-size="16.00">Metrics</text>
</g>
<!-- TriangleTeam&#45;&gt;Metrics -->
<g id="edge4" class="edge">
<title>TriangleTeam&#45;&gt;Metrics</title>
<path fill="none" stroke="#686868" stroke-dasharray="5,2" d="M985.41,-173.29C1017.94,-156.56 1053.9,-137.25 1086,-118.15 1094.68,-112.99 1103.7,-107.26 1112.42,-101.52"/>
<polygon fill="#686868" stroke="#686868" points="1114.09,-104.61 1120.48,-96.16 1110.21,-98.79 1114.09,-104.61"/>
<text text-anchor="middle" x="1094.75" y="-129.5" font-family="sans-serif" font-size="12.00" fill="#686868"> &#160;«realizes»</text>
</g>
</g>
</svg>
